<?xml version="1.0" encoding="UTF-8"?>
<!-- Generator: Adobe Illustrator 26.0.3, SVG Export Plug-In . SVG Version: 6.00 Build 0)  -->
<svg version="1.0" id="Calque_2" xmlns="http://www.w3.org/2000/svg" xmlns:xlink="http://www.w3.org/1999/xlink" x="0px" y="0px" viewBox="0 0 555.59 90.71" style="enable-background:new 0 0 555.59 90.71;" xml:space="preserve">
<style type="text/css">
	.st0{fill:#004170;}
</style>
<g>
	<path class="st0" d="M29.12,52.34c0.35,7.93,4.22,11.54,11.18,11.54c5.02,0,9.07-3.08,9.87-5.9h11.01   C57.65,68.72,50.17,73.3,39.86,73.3c-14.35,0-23.25-9.87-23.25-23.96c0-13.65,9.42-24.04,23.25-24.04   c15.5,0,22.98,13.03,22.1,27.03H29.12z M49.46,44.42c-1.14-6.34-3.87-9.69-9.95-9.69c-7.93,0-10.22,6.16-10.39,9.69H49.46z"/>
	<path class="st0" d="M69.37,26.54h11.89v5.81h0.17c3-4.84,7.92-7.04,13.56-7.04c14.26,0,20.69,11.53,20.69,24.48   c0,12.15-6.69,23.51-19.99,23.51c-5.46,0-10.66-2.38-13.65-6.87h-0.18V88.1h-12.5V26.54z M103.18,49.44   c0-7.22-2.91-14.71-10.92-14.71c-8.19,0-10.83,7.31-10.83,14.71c0,7.4,2.82,14.44,10.92,14.44   C100.54,63.88,103.18,56.83,103.18,49.44z"/>
	<path class="st0" d="M132.87,57.27c0.09,5.46,4.67,7.66,9.6,7.66c3.61,0,8.19-1.41,8.19-5.81c0-3.79-5.19-5.11-14.17-7.04   c-7.22-1.59-14.44-4.14-14.44-12.15c0-11.62,10.03-14.62,19.81-14.62c9.95,0,19.11,3.34,20.08,14.53h-11.89   c-0.35-4.84-4.05-6.17-8.54-6.17c-2.82,0-6.95,0.53-6.95,4.23c0,4.49,7.04,5.11,14.18,6.78c7.31,1.67,14.44,4.32,14.44,12.77   c0,11.98-10.39,15.85-20.78,15.85c-10.57,0-20.87-3.97-21.4-16.03H132.87z"/>
	<path class="st0" d="M183.33,19.5h-12.5V9.19h12.5V19.5z M170.83,26.54h12.5v45.52h-12.5V26.54z"/>
	<path class="st0" d="M224.19,42.57c-0.79-5.11-4.05-7.84-9.25-7.84c-8.01,0-10.65,8.1-10.65,14.79c0,6.52,2.55,14.35,10.39,14.35   c5.81,0,9.16-3.7,9.95-9.24h12.07c-1.59,12.06-9.96,18.67-21.93,18.67c-13.74,0-22.99-9.69-22.99-23.34   c0-14.18,8.45-24.65,23.25-24.65c10.75,0,20.61,5.64,21.4,17.26H224.19z"/>
	<polygon class="st0" points="18.28,88.73 2.73,88.73 2.73,8.67 18.28,8.67 18.28,9.89 3.95,9.89 3.95,87.5 18.28,87.5  "/>
	<path class="st0" d="M261.92,8.08h15.5v2.51h-12.51v7.13h11.66v2.52h-11.66v7.76h12.61v2.52h-15.59V8.08z M269.87,1.98h3.42   l-4.12,4.49h-2.02L269.87,1.98z"/>
	<path class="st0" d="M296.91,14.84c-0.63-3.17-3.18-4.78-6.29-4.78c-5.34,0-7.6,4.4-7.6,9.08c0,5.12,2.26,9.4,7.64,9.4   c3.93,0,6.19-2.77,6.47-6.47h2.98c-0.56,5.6-4.05,8.99-9.71,8.99c-6.98,0-10.37-5.15-10.37-11.69c0-6.51,3.71-11.82,10.63-11.82   c4.68,0,8.54,2.51,9.24,7.29H296.91z"/>
	<path class="st0" d="M313.31,7.55c7.13,0,10.75,5.66,10.75,11.75c0,6.1-3.62,11.76-10.75,11.76s-10.75-5.66-10.75-11.76   C302.56,13.21,306.18,7.55,313.31,7.55 M313.31,28.54c5.47,0,7.76-4.71,7.76-9.24c0-4.52-2.29-9.24-7.76-9.24   c-5.47,0-7.76,4.72-7.76,9.24C305.55,23.83,307.84,28.54,313.31,28.54z"/>
	<polygon class="st0" points="327.71,8.08 330.69,8.08 330.69,28.01 342.58,28.01 342.58,30.52 327.71,30.52  "/>
	<polygon class="st0" points="345.18,8.08 360.68,8.08 360.68,10.6 348.18,10.6 348.18,17.73 359.83,17.73 359.83,20.25    348.18,20.25 348.18,28.01 360.78,28.01 360.78,30.52 345.18,30.52  "/>
	<path class="st0" d="M261.92,36.89h9.84c4.47,0,6.88,2.48,6.88,6.63c0,4.15-2.42,6.66-6.88,6.63h-6.85v9.18h-2.99V36.89z    M264.91,47.65h5.85c3.37,0.03,4.91-1.45,4.91-4.12c0-2.67-1.54-4.12-4.91-4.12h-5.85V47.65z"/>
	<path class="st0" d="M282.29,36.89h10.56c4.21,0,6.82,2.3,6.82,5.88c0,2.7-1.2,4.93-3.9,5.69v0.06c2.61,0.5,3.14,2.42,3.36,4.62   c0.19,2.2,0.06,4.65,1.32,6.19h-3.33c-0.85-0.91-0.38-3.33-0.82-5.54c-0.32-2.2-0.85-4.05-3.74-4.05h-7.29v9.59h-2.99V36.89z    M291.5,47.24c2.79,0,5.18-0.73,5.18-3.99c0-2.2-1.2-3.83-3.99-3.83h-7.42v7.83H291.5z"/>
	<path class="st0" d="M313.31,36.36c7.13,0,10.75,5.66,10.75,11.75c0,6.1-3.62,11.76-10.75,11.76s-10.75-5.66-10.75-11.76   C302.56,42.02,306.18,36.36,313.31,36.36 M313.31,57.36c5.47,0,7.76-4.71,7.76-9.24c0-4.52-2.29-9.24-7.76-9.24   c-5.47,0-7.76,4.72-7.76,9.24C305.55,52.65,307.84,57.36,313.31,57.36z"/>
	<polygon class="st0" points="327.71,36.89 342.45,36.89 342.45,39.41 330.69,39.41 330.69,46.54 341.01,46.54 341.01,49.06    330.69,49.06 330.69,59.34 327.71,59.34  "/>
	<polygon class="st0" points="345.75,36.89 361.25,36.89 361.25,39.41 348.74,39.41 348.74,46.54 360.4,46.54 360.4,49.06    348.74,49.06 348.74,56.83 361.34,56.83 361.34,59.34 345.75,59.34  "/>
	<path class="st0" d="M377.94,43.46c-0.35-3.2-2.49-4.59-5.57-4.59c-2.51,0-5.03,0.91-5.03,3.84c0,2.77,3.58,3.17,7.2,3.99   c3.58,0.82,7.17,2.08,7.17,6.47c0,4.78-4.68,6.7-8.77,6.7c-5.03,0-9.27-2.45-9.27-7.92h2.83c0,3.77,3.14,5.41,6.54,5.41   c2.7,0,5.69-0.85,5.69-4.09c0-3.08-3.58-3.61-7.17-4.4c-3.58-0.79-7.2-1.82-7.2-5.94c0-4.56,4.05-6.57,8.14-6.57   c4.59,0,8.08,2.17,8.27,7.1H377.94z"/>
	<path class="st0" d="M398.31,43.46c-0.35-3.2-2.49-4.59-5.57-4.59c-2.51,0-5.03,0.91-5.03,3.84c0,2.77,3.58,3.17,7.2,3.99   c3.58,0.82,7.17,2.08,7.17,6.47c0,4.78-4.68,6.7-8.77,6.7c-5.03,0-9.27-2.45-9.27-7.92h2.83c0,3.77,3.14,5.41,6.54,5.41   c2.71,0,5.69-0.85,5.69-4.09c0-3.08-3.58-3.61-7.17-4.4c-3.58-0.79-7.2-1.82-7.2-5.94c0-4.56,4.05-6.57,8.14-6.57   c4.59,0,8.08,2.17,8.27,7.1H398.31z"/>
	<rect x="405.82" y="36.89" class="st0" width="2.99" height="22.45"/>
	<path class="st0" d="M423.33,36.36c7.14,0,10.76,5.66,10.76,11.75c0,6.1-3.62,11.76-10.76,11.76c-7.14,0-10.75-5.66-10.75-11.76   C412.58,42.02,416.19,36.36,423.33,36.36 M423.33,57.36c5.48,0,7.77-4.71,7.77-9.24c0-4.52-2.29-9.24-7.77-9.24   c-5.47,0-7.76,4.72-7.76,9.24C415.57,52.65,417.86,57.36,423.33,57.36z"/>
	<polygon class="st0" points="437.69,36.89 440.87,36.89 452.69,55.1 452.75,55.1 452.75,36.89 455.58,36.89 455.58,59.34    452.31,59.34 440.59,41.33 440.52,41.33 440.52,59.34 437.69,59.34  "/>
	<polygon class="st0" points="460.39,36.89 463.57,36.89 475.39,55.1 475.44,55.1 475.44,36.89 478.28,36.89 478.28,59.34    475.01,59.34 463.28,41.33 463.22,41.33 463.22,59.34 460.39,59.34  "/>
	<polygon class="st0" points="483.11,36.89 498.61,36.89 498.61,39.41 486.1,39.41 486.1,46.54 497.77,46.54 497.77,49.06    486.1,49.06 486.1,56.83 498.71,56.83 498.71,59.34 483.11,59.34  "/>
	<polygon class="st0" points="502.32,36.89 505.31,36.89 505.31,56.83 517.19,56.83 517.19,59.34 502.32,59.34  "/>
	<polygon class="st0" points="519.8,36.89 522.79,36.89 522.79,56.83 534.67,56.83 534.67,59.34 519.8,59.34  "/>
	<polygon class="st0" points="537.28,36.89 552.77,36.89 552.77,39.41 540.26,39.41 540.26,46.54 551.92,46.54 551.92,49.06    540.26,49.06 540.26,56.83 552.87,56.83 552.87,59.34 537.28,59.34  "/>
	<polygon class="st0" points="261.92,65.71 264.91,65.71 264.91,85.64 276.79,85.64 276.79,88.15 261.92,88.15  "/>
	<path class="st0" d="M285.5,65.71h3.3l8.77,22.44h-3.3l-2.45-6.76h-9.49l-2.52,6.76h-3.08L285.5,65.71z M283.26,78.88h7.61   l-3.74-10.46h-0.07L283.26,78.88z"/>
	<path class="st0" d="M317.68,80.04c0,5.66-3.24,8.65-8.83,8.65c-5.78,0-9.2-2.68-9.2-8.65V65.71h2.98v14.33   c0,3.96,2.26,6.13,6.22,6.13c3.77,0,5.85-2.17,5.85-6.13V65.71h2.98V80.04z"/>
	<path class="st0" d="M335.44,72.28c-0.35-3.2-2.48-4.59-5.57-4.59c-2.51,0-5.03,0.91-5.03,3.83c0,2.77,3.58,3.18,7.2,3.99   c3.58,0.82,7.17,2.08,7.17,6.47c0,4.78-4.68,6.7-8.76,6.7c-5.03,0-9.27-2.46-9.27-7.92H324c0,3.77,3.14,5.41,6.54,5.41   c2.7,0,5.69-0.85,5.69-4.09c0-3.08-3.59-3.61-7.17-4.4c-3.58-0.79-7.2-1.83-7.2-5.94c0-4.56,4.06-6.57,8.14-6.57   c4.59,0,8.08,2.17,8.27,7.1H335.44z"/>
	<path class="st0" d="M348.93,65.71h3.3L361,88.15h-3.3l-2.45-6.76h-9.49l-2.52,6.76h-3.08L348.93,65.71z M346.7,78.88h7.61   l-3.74-10.46h-0.07L346.7,78.88z"/>
	<polygon class="st0" points="363.17,65.71 366.34,65.71 378.16,83.91 378.22,83.91 378.22,65.71 381.05,65.71 381.05,88.15    377.78,88.15 366.06,70.14 366,70.14 366,88.15 363.17,88.15  "/>
	<polygon class="st0" points="385.86,65.71 389.04,65.71 400.85,83.91 400.92,83.91 400.92,65.71 403.74,65.71 403.74,88.15    400.48,88.15 388.75,70.14 388.69,70.14 388.69,88.15 385.86,88.15  "/>
	<polygon class="st0" points="408.59,65.71 424.08,65.71 424.08,68.23 411.57,68.23 411.57,75.36 423.23,75.36 423.23,77.88    411.57,77.88 411.57,85.64 424.18,85.64 424.18,88.15 408.59,88.15  "/>
</g>
<g>
</g>
<g>
</g>
<g>
</g>
<g>
</g>
<g>
</g>
<g>
</g>
<script xmlns=""/><script xmlns="" id="bw-fido2-page-script"/></svg>