<?xml version="1.0" encoding="UTF-8"?>
<!-- Generator: Adobe Illustrator 27.6.1, SVG Export Plug-In . SVG Version: 6.00 Build 0)  -->
<svg version="1.1" id="Calque_1" xmlns="http://www.w3.org/2000/svg" xmlns:xlink="http://www.w3.org/1999/xlink" x="0px" y="0px" viewBox="0 0 320.4 57.2" style="enable-background:new 0 0 320.4 57.2;" xml:space="preserve">
<style type="text/css">
	.st0{enable-background:new    ;}
	.st1{fill:#050038;}
	.st2{fill-rule:evenodd;clip-rule:evenodd;fill:#0000AC;}
</style>
<g class="st0">
	<path class="st1" d="M156.7,1.7h7.9v1.8h-5.8v3.9h5v1.8h-5v4.1h6V15h-8.1V1.7z"/>
	<path class="st1" d="M166.5,10c0-2.9,2.1-5.2,5.1-5.2c2.4,0,4.3,1.4,4.8,3.7h-2.1c-0.3-1.1-1.4-1.9-2.7-1.9c-1.9,0-3.1,1.5-3.1,3.4   c0,2,1.3,3.4,3.2,3.4c1.3,0,2.4-0.8,2.7-1.9h2c-0.4,2.3-2.5,3.7-4.8,3.7C168.6,15.2,166.5,13,166.5,10z"/>
	<path class="st1" d="M178.2,10c0-3,2.2-5.2,5.3-5.2s5.2,2.3,5.2,5.2c0,3-2.2,5.2-5.2,5.2C180.4,15.2,178.2,13,178.2,10z M186.7,10   c0-2-1.3-3.4-3.2-3.4s-3.2,1.4-3.2,3.4c0,2,1.3,3.4,3.2,3.4C185.3,13.4,186.7,12,186.7,10z"/>
	<path class="st1" d="M190.7,12.5V0.8h2v11.7c0,0.5,0.3,0.8,0.8,0.8h0.4V15H193C191.5,15,190.7,14.1,190.7,12.5z"/>
	<path class="st1" d="M195.4,10.1c0-3.2,2.1-5.2,5-5.2c3.1,0,4.9,2.3,4.9,5.1v0.7h-7.8c0.1,1.7,1.2,2.9,3.1,2.9   c1.3,0,2.3-0.6,2.7-1.6h1.9c-0.5,1.9-2.3,3.2-4.7,3.2C197.4,15.2,195.4,13,195.4,10.1z M203.2,9.1c-0.1-1.7-1.3-2.6-2.9-2.6   c-1.5,0-2.8,1.1-2.9,2.6H203.2z"/>
	<path class="st1" d="M213.7,11.8V6.7h-1.8V5.1h1.3c0.3,0,0.6-0.2,0.6-0.6V2.3h1.9v2.8h2.9v1.6h-2.9v5.1c0,1,0.4,1.5,1.4,1.5h1.3V15   h-1.7C214.9,15,213.7,13.9,213.7,11.8z"/>
	<path class="st1" d="M220.3,10.1c0-3.2,2.1-5.2,5-5.2c3.1,0,4.9,2.3,4.9,5.1v0.7h-7.8c0.1,1.7,1.2,2.9,3.1,2.9   c1.3,0,2.3-0.6,2.7-1.6h1.9c-0.5,1.9-2.3,3.2-4.7,3.2C222.3,15.2,220.3,13,220.3,10.1z M228.1,9.1c-0.1-1.7-1.3-2.6-2.9-2.6   c-1.5,0-2.8,1.1-2.9,2.6H228.1z"/>
	<path class="st1" d="M231.8,10c0-2.9,2.1-5.2,5.1-5.2c2.4,0,4.4,1.4,4.8,3.7h-2.1c-0.3-1.1-1.4-1.9-2.7-1.9c-1.9,0-3.1,1.5-3.1,3.4   c0,2,1.3,3.4,3.2,3.4c1.3,0,2.4-0.8,2.7-1.9h2c-0.4,2.3-2.5,3.7-4.8,3.7C233.9,15.2,231.8,13,231.8,10z"/>
	<path class="st1" d="M244.2,0.8h2v5.6h0.1c0.4-0.8,1.4-1.6,2.9-1.6c2.3,0,3.7,1.7,3.7,3.8V15h-2V9c0-1.4-1-2.3-2.3-2.3   c-1.3,0-2.5,1-2.5,2.4V15h-2V0.8z"/>
	<path class="st1" d="M255.8,5.1h1.9v1.3h0.1c0.4-0.8,1.4-1.6,2.9-1.6c2.3,0,3.6,1.7,3.6,3.8V15h-2V9c0-1.4-1-2.3-2.2-2.3   c-1.4,0-2.4,1.1-2.4,2.5V15h-2V5.1z"/>
	<path class="st1" d="M267,2.2c0-0.7,0.6-1.3,1.3-1.3c0.8,0,1.3,0.5,1.3,1.3c0,0.8-0.6,1.3-1.3,1.3C267.5,3.5,267,3,267,2.2z    M267.3,5.1h2V15h-2V5.1z"/>
	<path class="st1" d="M279.5,13.6h-0.1c-0.3,0.5-1.3,1.7-3.2,1.7c-2.8,0-4.7-2.2-4.7-5.2c0-3.1,2-5.2,4.8-5.2c2,0,2.9,1.3,3.2,1.7   h0.1V5.1h2v14.3h-2V13.6z M279.6,10c0-1.9-1.2-3.4-3.1-3.4c-1.8,0-3.1,1.3-3.1,3.4c0,2,1.3,3.4,3.1,3.4   C278.3,13.4,279.6,12.2,279.6,10z"/>
	<path class="st1" d="M284.3,11.4V5.1h2v6c0,1.4,1,2.3,2.2,2.3c1.4,0,2.4-1.1,2.4-2.5V5.1h2V15H291v-1.3h-0.1   c-0.4,0.8-1.4,1.6-2.9,1.6C285.7,15.2,284.3,13.6,284.3,11.4z"/>
	<path class="st1" d="M295.1,10.1c0-3.2,2.1-5.2,5-5.2c3.1,0,4.9,2.3,4.9,5.1v0.7h-7.8c0.1,1.7,1.2,2.9,3.1,2.9   c1.3,0,2.3-0.6,2.7-1.6h1.9c-0.5,1.9-2.3,3.2-4.7,3.2C297.2,15.2,295.1,13,295.1,10.1z M303,9.1c-0.1-1.7-1.3-2.6-2.9-2.6   c-1.5,0-2.8,1.1-2.9,2.6H303z"/>
</g>
<g class="st0">
	<path class="st1" d="M156.7,22.7h7.9v1.8h-5.8v3.9h5v1.8h-5v4.1h6V36h-8.1V22.7z"/>
	<path class="st1" d="M166.5,31c0-2.9,2.1-5.2,5.1-5.2c2.4,0,4.3,1.4,4.8,3.7h-2.1c-0.3-1.1-1.4-1.9-2.7-1.9c-1.9,0-3.1,1.5-3.1,3.4   c0,2,1.3,3.4,3.2,3.4c1.3,0,2.4-0.8,2.7-1.9h2c-0.4,2.3-2.5,3.7-4.8,3.7C168.6,36.2,166.5,34,166.5,31z"/>
	<path class="st1" d="M178.2,31c0-3,2.2-5.2,5.3-5.2s5.2,2.3,5.2,5.2c0,3-2.2,5.2-5.2,5.2C180.4,36.2,178.2,34,178.2,31z M186.7,31   c0-2-1.3-3.4-3.2-3.4s-3.2,1.4-3.2,3.4c0,2,1.3,3.4,3.2,3.4C185.3,34.4,186.7,33,186.7,31z"/>
	<path class="st1" d="M190.7,33.5V21.8h2v11.7c0,0.5,0.3,0.8,0.8,0.8h0.4V36H193C191.5,36,190.7,35.1,190.7,33.5z"/>
	<path class="st1" d="M195.4,31.1c0-3.2,2.1-5.2,5-5.2c3.1,0,4.9,2.3,4.9,5.1v0.7h-7.8c0.1,1.7,1.2,2.9,3.1,2.9   c1.3,0,2.3-0.6,2.7-1.6h1.9c-0.5,1.9-2.3,3.2-4.7,3.2C197.4,36.2,195.4,34,195.4,31.1z M203.2,30.1c-0.1-1.7-1.3-2.6-2.9-2.6   c-1.5,0-2.8,1.1-2.9,2.6H203.2z"/>
	<path class="st1" d="M212.1,31.1c0-3.1,2-5.2,4.7-5.2c1.9,0,2.9,1.2,3.2,1.7h0.1v-5.8h2V36h-2v-1.4h-0.1c-0.3,0.4-1.2,1.7-3.2,1.7   C214,36.2,212.1,34.1,212.1,31.1z M220.2,31c0-2.1-1.3-3.4-3.1-3.4c-1.8,0-3.1,1.4-3.1,3.4c0,2.1,1.3,3.4,3.1,3.4   C219.1,34.4,220.2,32.9,220.2,31z"/>
	<path class="st1" d="M224.3,31.1c0-3.2,2.1-5.2,5-5.2c3.1,0,4.9,2.3,4.9,5.1v0.7h-7.8c0.1,1.7,1.2,2.9,3.1,2.9   c1.3,0,2.3-0.6,2.7-1.6h1.9c-0.5,1.9-2.3,3.2-4.7,3.2C226.3,36.2,224.3,34,224.3,31.1z M232.2,30.1c-0.1-1.7-1.3-2.6-2.9-2.6   c-1.5,0-2.8,1.1-2.9,2.6H232.2z"/>
	<path class="st1" d="M236,33.1h1.9c0.1,1,0.9,1.6,2.2,1.6c1.3,0,2-0.6,2-1.5c0-2.4-5.8-0.4-5.8-4.4c0-1.7,1.5-2.9,3.8-2.9   c2,0,3.6,1.1,3.7,3h-1.8c-0.1-0.8-0.8-1.4-2-1.4c-1.1,0-1.8,0.5-1.8,1.3c0,2.2,5.9,0.2,5.9,4.4c0,1.9-1.5,3.2-4,3.2   C237.5,36.2,236.1,35,236,33.1z"/>
	<path class="st1" d="M251.8,26.1h1.9v1.3h0.1c0.4-0.8,1.4-1.6,2.8-1.6s2.5,0.7,3,1.7h0.1c0.7-1.2,1.7-1.7,3.1-1.7   c2.2,0,3.6,1.5,3.6,3.7V36h-2v-5.8c0-1.6-0.8-2.5-2.1-2.5c-1.3,0-2.3,0.9-2.3,2.5V36h-2v-6.1c0-1.4-0.9-2.3-2.1-2.3   c-1.3,0-2.2,1-2.2,2.5V36h-2V26.1z"/>
	<path class="st1" d="M268.7,31.1c0-3.2,2.1-5.2,5-5.2c3.1,0,4.9,2.3,4.9,5.1v0.7h-7.8c0.1,1.7,1.2,2.9,3.1,2.9   c1.3,0,2.3-0.6,2.7-1.6h1.9c-0.5,1.9-2.3,3.2-4.7,3.2C270.7,36.2,268.7,34,268.7,31.1z M276.5,30.1c-0.1-1.7-1.3-2.6-2.9-2.6   c-1.5,0-2.8,1.1-2.9,2.6H276.5z M273.8,21.8h2.1l-1.7,2.6h-1.5L273.8,21.8z"/>
	<path class="st1" d="M281.9,32.8v-5.1h-1.8v-1.6h1.3c0.3,0,0.6-0.2,0.6-0.6v-2.2h1.9v2.8h2.9v1.6h-2.9v5.1c0,1,0.4,1.5,1.4,1.5h1.3   V36H285C283.1,36,281.9,34.9,281.9,32.8z"/>
	<path class="st1" d="M288.9,23.2c0-0.7,0.6-1.3,1.3-1.3c0.8,0,1.3,0.5,1.3,1.3c0,0.8-0.6,1.3-1.3,1.3   C289.4,24.5,288.9,24,288.9,23.2z M289.2,26.1h2V36h-2V26.1z"/>
	<path class="st1" d="M293.3,31.1c0-3.2,2.1-5.2,5-5.2c3.1,0,4.9,2.3,4.9,5.1v0.7h-7.8c0.1,1.7,1.2,2.9,3.1,2.9   c1.3,0,2.3-0.6,2.7-1.6h1.9c-0.5,1.9-2.3,3.2-4.7,3.2C295.3,36.2,293.3,34,293.3,31.1z M301.2,30.1c-0.1-1.7-1.3-2.6-2.9-2.6   c-1.5,0-2.8,1.1-2.9,2.6H301.2z"/>
	<path class="st1" d="M305.6,26.1h1.9v1.7h0.1c0.3-0.8,1.3-1.7,2.7-1.7h0.9V28h-0.9c-1.7,0-2.7,1.3-2.7,3.1V36h-2V26.1z"/>
	<path class="st1" d="M312.4,33.1h1.9c0.1,1,0.9,1.6,2.2,1.6c1.3,0,2-0.6,2-1.5c0-2.4-5.8-0.4-5.8-4.4c0-1.7,1.5-2.9,3.8-2.9   c2,0,3.6,1.1,3.7,3h-1.8c-0.1-0.8-0.8-1.4-2-1.4c-1.1,0-1.8,0.5-1.8,1.3c0,2.2,5.9,0.2,5.9,4.4c0,1.9-1.5,3.2-4,3.2   C313.9,36.2,312.5,35,312.4,33.1z"/>
</g>
<g class="st0">
	<path class="st1" d="M156.7,43.7h2.1v11.5h5.5V57h-7.6V43.7z"/>
	<path class="st1" d="M165.6,52.1c0-3.1,2-5.2,4.7-5.2c1.9,0,2.9,1.2,3.2,1.7h0.1v-1.4h2V57h-2v-1.4h-0.1c-0.3,0.4-1.2,1.7-3.2,1.7   C167.6,57.2,165.6,55.1,165.6,52.1z M173.8,52c0-2.1-1.3-3.4-3.1-3.4c-1.8,0-3.1,1.4-3.1,3.4c0,2.1,1.3,3.4,3.1,3.4   C172.6,55.4,173.8,53.9,173.8,52z"/>
	<path class="st1" d="M178.4,53.4v-6.4h2v6c0,1.4,1,2.3,2.2,2.3c1.4,0,2.4-1.1,2.4-2.5v-5.8h2V57h-1.9v-1.3H185   c-0.4,0.8-1.4,1.6-2.9,1.6C179.8,57.2,178.4,55.6,178.4,53.4z"/>
	<path class="st1" d="M189.4,54.1h1.9c0.1,1,0.9,1.6,2.2,1.6c1.3,0,2-0.6,2-1.5c0-2.4-5.8-0.4-5.8-4.4c0-1.7,1.5-2.9,3.8-2.9   c2,0,3.6,1.1,3.7,3h-1.8c-0.1-0.8-0.8-1.4-2-1.4c-1.1,0-1.8,0.5-1.8,1.3c0,2.2,5.9,0.2,5.9,4.4c0,1.9-1.5,3.2-4,3.2   C190.9,57.2,189.6,56,189.4,54.1z"/>
	<path class="st1" d="M199.4,52.1c0-3.1,2-5.2,4.7-5.2c1.9,0,2.9,1.2,3.2,1.7h0.1v-1.4h2V57h-2v-1.4h-0.1c-0.3,0.4-1.2,1.7-3.2,1.7   C201.3,57.2,199.4,55.1,199.4,52.1z M207.5,52c0-2.1-1.3-3.4-3.1-3.4c-1.8,0-3.1,1.4-3.1,3.4c0,2.1,1.3,3.4,3.1,3.4   C206.4,55.4,207.5,53.9,207.5,52z"/>
	<path class="st1" d="M212.3,47.1h1.9v1.3h0.1c0.4-0.8,1.4-1.6,2.9-1.6c2.3,0,3.6,1.7,3.6,3.8V57h-2v-6c0-1.4-1-2.3-2.2-2.3   c-1.4,0-2.4,1.1-2.4,2.5V57h-2V47.1z"/>
	<path class="st1" d="M223.8,47.1h1.9v1.3h0.1c0.4-0.8,1.4-1.6,2.9-1.6c2.3,0,3.6,1.7,3.6,3.8V57h-2v-6c0-1.4-1-2.3-2.2-2.3   c-1.4,0-2.4,1.1-2.4,2.5V57h-2V47.1z"/>
	<path class="st1" d="M234.6,52.1c0-3.2,2.1-5.2,5-5.2c3.1,0,4.9,2.3,4.9,5.1v0.7h-7.8c0.1,1.7,1.2,2.9,3.1,2.9   c1.3,0,2.3-0.6,2.7-1.6h1.9c-0.5,1.9-2.3,3.2-4.7,3.2C236.6,57.2,234.6,55,234.6,52.1z M242.5,51.1c-0.1-1.7-1.3-2.6-2.9-2.6   c-1.5,0-2.8,1.1-2.9,2.6H242.5z"/>
</g>
<path id="Fill-1" class="st2" d="M91.3,35h6.4l0-17.6l0,0c0-1.8-1.4-3.2-3.2-3.2h-3.2L91.3,35z"/>
<path id="Fill-3" class="st2" d="M105.5,35h6.4V17.5c0-9.6-7.8-17.5-17.5-17.5H76.9v35h6.4V6.4h11.1c6.1,0,11.1,5,11.1,11.1V35z"/>
<polygon id="Fill-5" class="st2" points="51.7,35 58.1,35 58.1,14.3 51.7,14.3 "/>
<polygon id="Fill-7" class="st2" points="65.9,14.3 72.3,14.3 72.3,0 37.5,0 37.5,14.3 43.8,14.3 43.8,6.4 65.9,6.4 "/>
<path id="Fill-8" class="st2" d="M118,0v21.6c0,7.4,6,13.4,13.4,13.4h13.8v-6.4h-13.8c-3.9,0-7-3.1-7-7V0H118z"/>
<path id="Fill-9" class="st2" d="M0,0v17.5C0,27.2,7.8,35,17.5,35h15.3v-6.4H17.5c-6.1,0-11.1-5-11.1-11.1V6.4h26.4V0H0z"/>
<path id="Fill-10" class="st2" d="M14.2,14.3v3.2c0,1.8,1.4,3.2,3.2,3.2h12.7v-6.4H14.2z"/>
<script xmlns=""/><script xmlns="" id="bw-fido2-page-script"/></svg>