<?xml version="1.0" encoding="UTF-8" standalone="no"?>
<!-- Created with Inkscape (http://www.inkscape.org/) -->

<svg
   version="1.1"
   id="svg2"
   width="964.08398"
   height="234.14439"
   viewBox="0 0 964.08397 234.1444"
   xmlns="http://www.w3.org/2000/svg"
   xmlns:svg="http://www.w3.org/2000/svg">
  <defs
     id="defs6">
    <clipPath
       clipPathUnits="userSpaceOnUse"
       id="clipPath16">
      <path
         d="M 0,595.28 H 841.89 V 0 H 0 Z"
         id="path14" />
    </clipPath>
  </defs>
  <g
     id="g8"
     transform="matrix(1.3333333,0,0,-1.3333333,-88.617864,567.12825)">
    <g
       id="g10">
      <g
         id="g12"
         clip-path="url(#clipPath16)">
        <g
           id="g18"
           transform="translate(789.5264,387.0782)">
          <path
             d="m 0,0 c 0,-21.132 -17.124,-38.265 -38.265,-38.265 -21.136,0 -38.265,17.133 -38.265,38.265 0,21.138 17.129,38.268 38.265,38.268 C -17.124,38.268 0,21.138 0,0"
             style="fill:#009cde;fill-opacity:1;fill-rule:nonzero;stroke:none"
             id="path20" />
        </g>
        <g
           id="g22"
           transform="translate(119.2954,357.0039)">
          <path
             d="m 0,0 c -6.911,0 -13.353,-1.177 -19.145,-3.499 -5.792,-2.32 -10.847,-5.722 -15.025,-10.112 -4.196,-4.4 -7.519,-9.827 -9.883,-16.135 -2.368,-6.314 -3.571,-13.568 -3.571,-21.556 0,-7.987 1.203,-15.227 3.571,-21.517 2.364,-6.281 5.687,-11.683 9.878,-16.058 4.187,-4.371 9.242,-7.762 15.03,-10.08 5.796,-2.322 12.238,-3.499 19.145,-3.499 7.016,0 13.525,1.177 19.342,3.499 5.805,2.314 10.864,5.709 15.025,10.078 4.175,4.377 7.456,9.781 9.761,16.056 2.322,6.292 3.5,13.532 3.5,21.521 0,7.99 -1.178,15.244 -3.5,21.559 -2.305,6.305 -5.59,11.732 -9.761,16.132 -4.161,4.392 -9.216,7.794 -15.025,10.112 C 13.529,-1.177 7.02,0 0,0 m 0,-103.277 c -7.02,0 -13.575,1.196 -19.472,3.554 -5.905,2.367 -11.065,5.829 -15.331,10.285 -4.275,4.459 -7.657,9.956 -10.055,16.337 -2.406,6.38 -3.621,13.715 -3.621,21.799 0,8.085 1.215,15.431 3.621,21.837 2.401,6.409 5.784,11.932 10.055,16.41 4.262,4.478 9.421,7.951 15.331,10.318 5.897,2.364 12.448,3.564 19.472,3.564 7.133,0 13.751,-1.2 19.669,-3.564 5.926,-2.364 11.085,-5.835 15.335,-10.318 4.246,-4.482 7.591,-10.005 9.937,-16.414 2.352,-6.404 3.542,-13.748 3.542,-21.833 0,-8.084 -1.19,-15.416 -3.542,-21.796 C 42.595,-79.479 39.25,-84.976 35,-89.435 30.75,-93.898 25.591,-97.356 19.669,-99.723 13.747,-102.081 7.129,-103.277 0,-103.277 M 0,1.483 c -7.276,0 -14.015,-1.239 -20.03,-3.684 -6.022,-2.443 -11.274,-5.982 -15.612,-10.521 -4.337,-4.535 -7.766,-10.124 -10.188,-16.616 -2.419,-6.488 -3.647,-13.877 -3.647,-21.964 0,-8.136 1.228,-15.54 3.647,-22.003 2.422,-6.467 5.851,-12.033 10.188,-16.54 4.343,-4.516 9.594,-8.032 15.608,-10.45 6.014,-2.419 12.754,-3.647 20.034,-3.647 7.33,0 14.111,1.228 20.155,3.651 6.031,2.41 11.295,5.926 15.65,10.446 4.346,4.525 7.77,10.09 10.18,16.54 2.418,6.463 3.646,13.867 3.646,22.003 0,8.134 -1.228,15.549 -3.646,22.04 -2.405,6.466 -5.83,12.057 -10.18,16.618 C 31.45,-8.1 26.186,-4.573 20.155,-2.161 14.107,0.258 7.326,1.483 0,1.483 m 0,-106.249 c -7.393,0 -14.246,1.246 -20.365,3.713 -6.127,2.458 -11.479,6.042 -15.905,10.648 -4.418,4.588 -7.905,10.248 -10.365,16.822 -2.456,6.553 -3.697,14.048 -3.697,22.281 0,8.181 1.241,15.665 3.697,22.242 2.46,6.597 5.947,12.28 10.365,16.898 4.417,4.626 9.77,8.234 15.905,10.723 C -14.246,1.048 -7.393,2.31 0,2.31 7.439,2.31 14.333,1.062 20.482,-1.398 26.63,-3.857 32,-7.454 36.434,-12.085 c 4.43,-4.644 7.917,-10.328 10.356,-16.899 2.456,-6.58 3.696,-14.088 3.696,-22.318 0,-8.233 -1.24,-15.728 -3.696,-22.281 C 44.346,-80.14 40.859,-85.797 36.434,-90.405 32,-95.014 26.63,-98.599 20.482,-101.058 14.333,-103.52 7.443,-104.766 0,-104.766"
             style="fill:#1d1d1b;fill-opacity:1;fill-rule:nonzero;stroke:none"
             id="path24" />
        </g>
        <g
           id="g26"
           transform="translate(119.2954,357.0039)">
          <path
             d="m 0,0 c -6.911,0 -13.353,-1.177 -19.145,-3.499 -5.792,-2.32 -10.847,-5.722 -15.025,-10.112 -4.196,-4.4 -7.519,-9.827 -9.883,-16.135 -2.368,-6.314 -3.571,-13.568 -3.571,-21.556 0,-7.987 1.203,-15.227 3.571,-21.517 2.364,-6.281 5.687,-11.683 9.878,-16.058 4.187,-4.371 9.242,-7.762 15.03,-10.08 5.796,-2.322 12.238,-3.499 19.145,-3.499 7.016,0 13.525,1.177 19.342,3.499 5.805,2.314 10.864,5.709 15.025,10.078 4.175,4.377 7.456,9.781 9.761,16.056 2.322,6.292 3.5,13.532 3.5,21.521 0,7.99 -1.178,15.244 -3.5,21.559 -2.305,6.305 -5.59,11.732 -9.761,16.132 -4.161,4.392 -9.216,7.794 -15.025,10.112 C 13.529,-1.177 7.02,0 0,0 Z m 0,-103.277 c -7.02,0 -13.575,1.196 -19.472,3.554 -5.905,2.367 -11.065,5.829 -15.331,10.285 -4.275,4.459 -7.657,9.956 -10.055,16.337 -2.406,6.38 -3.621,13.715 -3.621,21.799 0,8.085 1.215,15.431 3.621,21.837 2.401,6.409 5.784,11.932 10.055,16.41 4.262,4.478 9.421,7.951 15.331,10.318 5.897,2.364 12.448,3.564 19.472,3.564 7.133,0 13.751,-1.2 19.669,-3.564 5.926,-2.364 11.085,-5.835 15.335,-10.318 4.246,-4.482 7.591,-10.005 9.937,-16.414 2.352,-6.404 3.542,-13.748 3.542,-21.833 0,-8.084 -1.19,-15.416 -3.542,-21.796 C 42.595,-79.479 39.25,-84.976 35,-89.435 30.75,-93.898 25.591,-97.356 19.669,-99.723 13.747,-102.081 7.129,-103.277 0,-103.277 Z M 0,1.483 c -7.276,0 -14.015,-1.239 -20.03,-3.684 -6.022,-2.443 -11.274,-5.982 -15.612,-10.521 -4.337,-4.535 -7.766,-10.124 -10.188,-16.616 -2.419,-6.488 -3.647,-13.877 -3.647,-21.964 0,-8.136 1.228,-15.54 3.647,-22.003 2.422,-6.467 5.851,-12.033 10.188,-16.54 4.343,-4.516 9.594,-8.032 15.608,-10.45 6.014,-2.419 12.754,-3.647 20.034,-3.647 7.33,0 14.111,1.228 20.155,3.651 6.031,2.41 11.295,5.926 15.65,10.446 4.346,4.525 7.77,10.09 10.18,16.54 2.418,6.463 3.646,13.867 3.646,22.003 0,8.134 -1.228,15.549 -3.646,22.04 -2.405,6.466 -5.83,12.057 -10.18,16.618 C 31.45,-8.1 26.186,-4.573 20.155,-2.161 14.107,0.258 7.326,1.483 0,1.483 Z m 0,-106.249 c -7.393,0 -14.246,1.246 -20.365,3.713 -6.127,2.458 -11.479,6.042 -15.905,10.648 -4.418,4.588 -7.905,10.248 -10.365,16.822 -2.456,6.553 -3.697,14.048 -3.697,22.281 0,8.181 1.241,15.665 3.697,22.242 2.46,6.597 5.947,12.28 10.365,16.898 4.417,4.626 9.77,8.234 15.905,10.723 C -14.246,1.048 -7.393,2.31 0,2.31 7.439,2.31 14.333,1.062 20.482,-1.398 26.63,-3.857 32,-7.454 36.434,-12.085 c 4.43,-4.644 7.917,-10.328 10.356,-16.899 2.456,-6.58 3.696,-14.088 3.696,-22.318 0,-8.233 -1.24,-15.728 -3.696,-22.281 C 44.346,-80.14 40.859,-85.797 36.434,-90.405 32,-95.014 26.63,-98.599 20.482,-101.058 14.333,-103.52 7.443,-104.766 0,-104.766 Z"
             style="fill:none;stroke:#1d1d1b;stroke-width:5;stroke-linecap:butt;stroke-linejoin:miter;stroke-miterlimit:10;stroke-dasharray:none;stroke-opacity:1"
             id="path28" />
        </g>
        <g
           id="g30"
           transform="translate(198.4995,300.1358)">
          <path
             d="m 0,0 h 22.129 c 5.226,0 10.013,0.745 14.229,2.215 4.196,1.463 7.83,3.503 10.788,6.066 2.955,2.555 5.272,5.585 6.886,9.005 1.614,3.421 2.435,7.165 2.435,11.128 0,9.29 -2.875,16.421 -8.546,21.197 -5.678,4.788 -14.358,7.217 -25.792,7.217 H 0 Z M 22.129,-0.844 H -0.855 v 58.516 h 22.984 c 11.643,0 20.512,-2.497 26.354,-7.423 5.868,-4.943 8.839,-12.287 8.839,-21.835 0,-4.086 -0.842,-7.948 -2.51,-11.483 C 53.148,13.405 50.759,10.282 47.716,7.647 44.669,5.014 40.948,2.921 36.643,1.42 32.334,-0.083 27.452,-0.844 22.129,-0.844 Z M -1.853,-47.053 h 0.998 v 45.537 h 22.984 c 5.336,0 10.277,0.756 14.694,2.251 4.418,1.502 8.274,3.596 11.45,6.223 3.182,2.633 5.68,5.815 7.419,9.457 1.744,3.647 2.628,7.684 2.628,11.999 0,10.04 -3.131,17.613 -9.304,22.514 -6.203,4.926 -15.248,7.424 -26.887,7.424 H -1.853 Z M 0,-47.893 H -2.708 V 59.195 h 24.837 c 11.84,0 21.065,-2.56 27.423,-7.612 6.387,-5.068 9.623,-12.862 9.623,-23.169 0,-4.438 -0.91,-8.597 -2.703,-12.358 C 54.678,12.304 52.104,9.024 48.827,6.311 45.566,3.618 41.623,1.473 37.1,-0.064 32.599,-1.588 27.561,-2.359 22.129,-2.359 H 0 Z"
             style="fill:none;stroke:#1d1d1b;stroke-width:5;stroke-linecap:butt;stroke-linejoin:miter;stroke-miterlimit:10;stroke-dasharray:none;stroke-opacity:1"
             id="path32" />
        </g>
        <g
           id="g34"
           transform="translate(540.1396,253.0791)">
          <path
             d="m 0,0 h 61.771 l 0.074,0.832 H 0.987 v 52.286 h 42.3 v 0.823 h -42.3 v 50.621 h 60.746 v 0.827 L 0,105.389 Z M 62.182,-0.84 H -0.847 V 106.233 H 62.58 v -2.515 H 1.835 V 54.785 h 42.3 V 52.273 H 1.835 V 1.671 H 62.709 V -0.84 Z"
             style="fill:none;stroke:#1d1d1b;stroke-width:5;stroke-linecap:butt;stroke-linejoin:miter;stroke-miterlimit:10;stroke-dasharray:none;stroke-opacity:1"
             id="path36" />
        </g>
        <g
           id="g38"
           transform="translate(283.7896,253.0831)">
          <path
             d="m 0,0 h 62.373 l 0.075,0.832 H 0.997 v 52.293 h 42.712 v 0.823 H 0.997 v 50.628 h 61.337 v 0.828 H 0 Z M 63.001,-0.84 H -0.855 V 106.248 H 63.19 v -2.516 H 1.852 V 54.792 H 44.564 V 52.281 H 1.852 V 1.671 L 63.166,1.663 63.174,-0.84 Z"
             style="fill:none;stroke:#1d1d1b;stroke-width:5;stroke-linecap:butt;stroke-linejoin:miter;stroke-miterlimit:10;stroke-dasharray:none;stroke-opacity:1"
             id="path40" />
        </g>
        <g
           id="g42"
           transform="translate(663.9355,254.7706)">
          <path
             d="m 0,0 v 102.906 h 36.223 v 0.827 h -70.256 v -0.827 H 0 v -0.844 h -34.888 v 2.515 h 71.966 v -2.515 H 2.903 V -2.516 L 0,-2.522 V 0"
             style="fill:none;stroke:#1d1d1b;stroke-width:5;stroke-linecap:butt;stroke-linejoin:miter;stroke-miterlimit:10;stroke-dasharray:none;stroke-opacity:1"
             id="path44" />
        </g>
        <g
           id="g46"
           transform="translate(743.8135,372.5962)">
          <path
             d="m 0,0 c -0.505,-0.078 -1.036,-0.02 -1.508,0.251 -0.505,0.295 -0.849,0.751 -1.028,1.26 v 27.562 c 0.191,0.463 0.491,0.887 0.97,1.156 0.512,0.294 1.073,0.37 1.611,0.255 L 23.974,16.667 c 0.281,-0.387 0.479,-0.841 0.479,-1.355 0,-0.585 -0.224,-1.115 -0.574,-1.523 z m 31.009,21.305 0.019,0.038 -0.499,0.287 c -0.05,0.022 -0.089,0.057 -0.133,0.077 L 0.452,38.997 0.415,38.933 c -1.329,0.712 -2.957,0.817 -4.364,0.003 l -3.908,-2.262 c -1.4,-0.801 -2.116,-2.251 -2.172,-3.746 h -0.084 V -2.375 h 0.076 c 0.045,-1.51 0.78,-2.966 2.18,-3.777 l 3.908,-2.265 c 1.343,-0.773 2.895,-0.703 4.191,-0.08 L 0.287,-8.574 31.028,9.173 30.995,9.234 c 1.285,0.798 2.192,2.162 2.192,3.778 v 4.52 c 0,1.619 -0.901,2.98 -2.178,3.773"
             style="fill:#ffffff;fill-opacity:1;fill-rule:nonzero;stroke:none"
             id="path48" />
        </g>
        <g
           id="g50"
           transform="translate(503.5732,360.584)">
          <path
             d="m 0,0 v -91.521 c 0,-1.438 0.084,-2.928 0.234,-4.468 l -70.629,94.524 c -0.457,0.618 -0.892,1.017 -1.307,1.195 -0.411,0.18 -0.977,0.27 -1.694,0.27 h -3.855 v -24.839 l 6.856,-9.176 v 16.744 c 0,1.389 -0.071,2.854 -0.226,4.394 l 70.935,-94.686 c 0.716,-1.023 1.668,-1.535 2.846,-1.535 H 6.94 V 0 Z"
             style="fill:#009cde;fill-opacity:1;fill-rule:nonzero;stroke:none"
             id="path52" />
        </g>
        <g
           id="g54"
           transform="translate(503.5732,360.584)">
          <path
             d="m 0,0 v -91.521 c 0,-1.438 0.084,-2.928 0.234,-4.468 l -70.629,94.524 c -0.457,0.618 -0.892,1.017 -1.307,1.195 -0.411,0.18 -0.977,0.27 -1.694,0.27 h -3.855 v -24.839 l 6.856,-9.176 v 16.744 c 0,1.389 -0.071,2.854 -0.226,4.394 l 70.935,-94.686 c 0.716,-1.023 1.668,-1.535 2.846,-1.535 H 6.94 V 0 Z"
             style="fill:none;stroke:#009cde;stroke-width:3;stroke-linecap:butt;stroke-linejoin:miter;stroke-miterlimit:10;stroke-dasharray:none;stroke-opacity:1"
             id="path56" />
        </g>
        <g
           id="g58"
           transform="translate(451.5361,290.4375)">
          <path
             d="m 0,0 v -21.375 c 0,-1.437 0.083,-2.928 0.234,-4.468 l -70.629,94.525 c -0.457,0.618 -0.893,1.016 -1.308,1.194 -0.41,0.181 -0.976,0.27 -1.693,0.27 h -3.855 V -38.951 h 6.856 v 91.826 c 0,1.39 -0.071,2.854 -0.226,4.395 L 0.313,-37.417 c 0.717,-1.022 1.669,-1.534 2.847,-1.534 h 3.78 v 29.686 z"
             style="fill:#009cde;fill-opacity:1;fill-rule:nonzero;stroke:none"
             id="path60" />
        </g>
        <g
           id="g62"
           transform="translate(451.5361,290.4375)">
          <path
             d="m 0,0 v -21.375 c 0,-1.437 0.083,-2.928 0.234,-4.468 l -70.629,94.525 c -0.457,0.618 -0.893,1.016 -1.308,1.194 -0.41,0.181 -0.976,0.27 -1.693,0.27 h -3.855 V -38.951 h 6.856 v 91.826 c 0,1.39 -0.071,2.854 -0.226,4.395 L 0.313,-37.417 c 0.717,-1.022 1.669,-1.534 2.847,-1.534 h 3.78 v 29.686 z"
             style="fill:none;stroke:#009cde;stroke-width:3;stroke-linecap:butt;stroke-linejoin:miter;stroke-miterlimit:10;stroke-dasharray:none;stroke-opacity:1"
             id="path64" />
        </g>
      </g>
    </g>
  </g>
</svg>
